<svg width="17" height="17" viewBox="0 0 17 17" fill="none" xmlns="http://www.w3.org/2000/svg">
<g filter="url(#filter0_i_4_28)">
<path d="M13.0708 5.18929C13.601 5.18929 14.0308 4.75948 14.0308 4.22929C14.0308 3.69909 13.601 3.26929 13.0708 3.26929C12.5406 3.26929 12.1108 3.69909 12.1108 4.22929C12.1108 4.75948 12.5406 5.18929 13.0708 5.18929Z" fill="url(#paint0_linear_4_28)"/>
<path d="M8.7999 4.39197C7.98741 4.39197 7.19317 4.6329 6.51761 5.08429C5.84206 5.53568 5.31552 6.17727 5.0046 6.9279C4.69367 7.67854 4.61232 8.50452 4.77083 9.3014C4.92934 10.0983 5.32059 10.8302 5.8951 11.4048C6.46962 11.9793 7.20159 12.3705 7.99847 12.529C8.79534 12.6875 9.62132 12.6062 10.372 12.2953C11.1226 11.9843 11.7642 11.4578 12.2156 10.7823C12.667 10.1067 12.9079 9.31245 12.9079 8.49997C12.9079 7.41046 12.4751 6.36557 11.7047 5.59517C10.9343 4.82477 9.88941 4.39197 8.7999 4.39197ZM8.7999 11.1666C8.27248 11.1666 7.75691 11.0102 7.31838 10.7172C6.87985 10.4242 6.53805 10.0077 6.33622 9.52046C6.13438 9.03319 6.08157 8.49701 6.18447 7.97973C6.28736 7.46244 6.54134 6.98729 6.91428 6.61435C7.28722 6.24141 7.76237 5.98743 8.27966 5.88454C8.79694 5.78165 9.33312 5.83445 9.82039 6.03629C10.3077 6.23812 10.7241 6.57992 11.0171 7.01845C11.3102 7.45698 11.4666 7.97255 11.4666 8.49997C11.4666 9.20721 11.1856 9.88549 10.6855 10.3856C10.1854 10.8857 9.50714 11.1666 8.7999 11.1666Z" fill="url(#paint1_linear_4_28)"/>
<path d="M8.80005 1.94133C10.936 1.94133 11.1894 1.94933 12.0327 1.988C12.5399 1.99402 13.0424 2.08715 13.518 2.26333C13.8632 2.39646 14.1766 2.60036 14.4381 2.86192C14.6997 3.12348 14.9036 3.43689 15.0367 3.782C15.2129 4.25769 15.306 4.76011 15.312 5.26733C15.3507 6.11067 15.3587 6.364 15.3587 8.50067C15.3587 10.6373 15.3507 10.8893 15.312 11.7327C15.306 12.2399 15.2129 12.7423 15.0367 13.218C14.9036 13.5631 14.6997 13.8765 14.4381 14.1381C14.1766 14.3996 13.8632 14.6035 13.518 14.7367C13.0424 14.9128 12.5399 15.006 12.0327 15.012C11.1894 15.0507 10.936 15.0587 8.80005 15.0587C6.66405 15.0587 6.41072 15.0507 5.56738 15.012C5.06016 15.006 4.55773 14.9128 4.08205 14.7367C3.73694 14.6035 3.42352 14.3996 3.16197 14.1381C2.90041 13.8765 2.69651 13.5631 2.56338 13.218C2.3872 12.7423 2.29407 12.2399 2.28805 11.7327C2.24938 10.8893 2.24138 10.636 2.24138 8.5C2.24138 6.364 2.24938 6.11067 2.28805 5.26733C2.29407 4.76011 2.3872 4.25769 2.56338 3.782C2.69651 3.43689 2.90041 3.12348 3.16197 2.86192C3.42352 2.60036 3.73694 2.39646 4.08205 2.26333C4.55773 2.08715 5.06016 1.99402 5.56738 1.988C6.41072 1.94933 6.66405 1.94133 8.80005 1.94133ZM8.80005 0.5C6.62738 0.5 6.35472 0.509333 5.50138 0.548C4.8379 0.561397 4.18149 0.68718 3.56005 0.92C3.02853 1.12553 2.54582 1.43985 2.14286 1.84281C1.7399 2.24577 1.42558 2.72848 1.22005 3.26C0.987154 3.88165 0.861371 4.53829 0.848049 5.202C0.809382 6.05533 0.800049 6.32667 0.800049 8.5C0.800049 10.6733 0.809382 10.9453 0.848049 11.7987C0.861446 12.4622 0.987228 13.1186 1.22005 13.74C1.42558 14.2715 1.7399 14.7542 2.14286 15.1572C2.54582 15.5601 3.02853 15.8745 3.56005 16.08C4.1817 16.3129 4.83834 16.4387 5.50205 16.452C6.35538 16.4907 6.62738 16.5 8.80005 16.5C10.9727 16.5 11.2454 16.4907 12.0987 16.452C12.7624 16.4387 13.4191 16.3129 14.0407 16.08C14.5722 15.8745 15.0549 15.5601 15.4579 15.1572C15.8609 14.7542 16.1752 14.2715 16.3807 13.74C16.6134 13.1183 16.7389 12.4617 16.752 11.798C16.7907 10.9447 16.8 10.6733 16.8 8.5C16.8 6.32667 16.7907 6.05467 16.752 5.20133C16.7387 4.53785 16.6129 3.88144 16.38 3.26C16.1745 2.72848 15.8602 2.24577 15.4572 1.84281C15.0543 1.43985 14.5716 1.12553 14.04 0.92C13.4184 0.687333 12.7617 0.561775 12.098 0.548667C11.2447 0.508667 10.9734 0.5 8.80005 0.5Z" fill="url(#paint2_linear_4_28)"/>
</g>
<defs>
<filter id="filter0_i_4_28" x="0.800049" y="0.5" width="16" height="20" filterUnits="userSpaceOnUse" color-interpolation-filters="sRGB">
<feFlood flood-opacity="0" result="BackgroundImageFix"/>
<feBlend mode="normal" in="SourceGraphic" in2="BackgroundImageFix" result="shape"/>
<feColorMatrix in="SourceAlpha" type="matrix" values="0 0 0 0 0 0 0 0 0 0 0 0 0 0 0 0 0 0 127 0" result="hardAlpha"/>
<feOffset dy="4"/>
<feGaussianBlur stdDeviation="2"/>
<feComposite in2="hardAlpha" operator="arithmetic" k2="-1" k3="1"/>
<feColorMatrix type="matrix" values="0 0 0 0 0 0 0 0 0 0 0 0 0 0 0 0 0 0 0.25 0"/>
<feBlend mode="normal" in2="shape" result="effect1_innerShadow_4_28"/>
</filter>
<linearGradient id="paint0_linear_4_28" x1="12.2116" y1="3.45361" x2="14.015" y2="3.54142" gradientUnits="userSpaceOnUse">
<stop stop-color="#D4362E"/>
<stop offset="1" stop-color="#F15700"/>
</linearGradient>
<linearGradient id="paint1_linear_4_28" x1="5.12323" y1="5.1807" x2="12.8399" y2="5.55645" gradientUnits="userSpaceOnUse">
<stop stop-color="#D4362E"/>
<stop offset="1" stop-color="#F15700"/>
</linearGradient>
<linearGradient id="paint2_linear_4_28" x1="1.64005" y1="2.036" x2="16.6677" y2="2.76774" gradientUnits="userSpaceOnUse">
<stop stop-color="#D4362E"/>
<stop offset="1" stop-color="#F15700"/>
</linearGradient>
</defs>
</svg>
