<svg width="56" height="60" viewBox="0 0 56 60" fill="none" xmlns="http://www.w3.org/2000/svg">
<path fill-rule="evenodd" clip-rule="evenodd" d="M38.5636 0.48034C38.035 0.764351 37.3587 1.1896 37.0606 1.42558C36.7627 1.66156 36.4116 1.85446 36.2804 1.85446C36.1495 1.85446 35.9017 2.06889 35.7299 2.33098C35.3376 2.92969 35.0849 2.93637 34.9381 2.35195C34.8752 2.1013 34.5678 1.65088 34.2548 1.35124C33.7449 0.862516 33.5539 0.806095 32.4118 0.806095C31.2233 0.806095 31.0316 0.869759 29.5566 1.75286C28.687 2.27361 27.8228 2.8422 27.6358 3.01623C27.1879 3.43348 26.8217 3.53203 25.2288 3.66336C23.2043 3.83014 19.8118 4.49118 18.7958 4.91682C17.8908 5.29575 17.8899 5.29575 16.2918 4.90957C14.6287 4.50738 11.7284 4.3873 11.2345 4.6999C10.9215 4.89795 10.525 4.67741 8.79256 3.3418C8.13972 2.8382 7.55702 2.42629 7.49812 2.42629C7.43903 2.42629 7.20648 2.25474 6.98156 2.04507C6.21835 1.33409 5.63337 1.53556 4.66144 2.84335C4.17939 3.492 3.78501 4.21384 3.78501 4.44734C3.78501 4.89814 4.61417 5.6217 6.92933 7.19157C9.48657 8.92537 9.57254 9.01534 9.89791 10.2995C10.1587 11.3282 10.1627 11.5663 9.92898 12.1475C9.3724 13.5311 9.73246 13.6417 4.12868 10.3681C3.11215 9.77416 2.16215 9.28829 2.01747 9.28829C1.66294 9.28829 1.09148 9.95238 0.479432 11.0755C-0.4132 12.7132 -0.346867 12.8009 3.21318 14.6908C3.68494 14.9413 4.4998 15.3842 5.02398 15.6753C5.54817 15.9662 6.38381 16.4183 6.88092 16.68C8.19518 17.3719 8.25389 17.4983 7.66109 18.3625C6.21187 20.4756 4.83109 23.8533 4.03586 27.2305C3.57591 29.1845 3.52578 29.7542 3.52788 33.0194C3.53017 36.3846 3.57153 36.8164 4.1121 39.1189C4.78515 41.9846 5.22165 43.2384 6.29403 45.3866C8.77407 50.3549 12.5043 54.1652 17.2231 56.5509C19.9319 57.9205 20.0979 57.9845 22.4666 58.5725C32.4834 61.0593 42.7966 57.0118 48.7222 48.2683C49.6951 46.833 51.3275 43.6391 51.6545 42.5311C51.7908 42.0696 51.9586 41.6922 52.0272 41.6922C52.096 41.6922 52.5516 41.9154 53.0393 42.188C54.0749 42.7669 54.6997 42.6994 55.1866 41.9562C55.4504 41.5536 55.4736 41.3298 55.3133 40.7294C55.1366 40.0672 55.1612 39.9569 55.5649 39.606C56.4149 38.867 56.035 38.0212 54.2888 36.7649L53.3111 36.0615L53.2704 32.7297C53.2259 29.1159 53.0125 27.7762 51.9647 24.5372C51.2199 22.2356 50.5726 20.7959 49.4516 18.9494C48.9608 18.141 48.6116 17.3948 48.6755 17.2913C48.7395 17.188 49.0655 17.1003 49.4 17.0967C50.3715 17.086 52.229 16.4846 53.2021 15.8657C53.8611 15.4466 54.2015 15.0575 54.4842 14.4007C54.9483 13.3218 54.9555 13.0805 54.564 11.7622C54.3195 10.9384 54 10.4768 52.9438 9.42058C51.6829 8.15968 51.6284 8.06724 51.6284 7.19157C51.6284 6.39443 51.5472 6.20668 50.9916 5.71891C50.57 5.34874 49.9615 5.07636 49.1903 4.91262C47.9317 4.64558 47.6208 4.67665 46.2496 5.20635C45.5672 5.46997 45.2224 5.50885 44.82 5.36761C44.3593 5.20559 44.2741 5.05291 44.1696 4.20088C43.9489 2.39941 43.4318 1.11107 42.708 0.559063C42.1665 0.146008 41.8131 0.0449843 40.7846 0.00838696C39.7263 -0.0289728 39.3708 0.0465092 38.5636 0.48034ZM41.7429 2.09348C41.8099 2.19851 41.9206 2.70725 41.9892 3.22381C42.0992 4.05278 42.0626 4.20603 41.677 4.52835C40.9948 5.09866 40.5777 5.17357 40.2842 4.77862C40.0661 4.48508 39.9672 4.46678 39.6788 4.66712C39.009 5.1324 38.8026 5.15718 38.5439 4.8034C38.2252 4.36747 38.197 2.31288 38.5073 2.12112C39.1958 1.69568 41.477 1.67624 41.7429 2.09348ZM33.4708 2.19222C34.0384 2.63005 34.6898 4.51253 34.8047 6.0479C34.8851 7.11971 34.8457 7.33377 34.5121 7.63436C34.1393 7.9706 34.1236 7.9706 34.0302 7.63436C33.9771 7.44318 33.8776 6.858 33.8093 6.33382C33.4035 3.22457 31.9198 2.80408 29.245 5.04033C28.6853 5.50828 28.3117 5.66668 27.7677 5.66668C27.3672 5.66668 27.0396 5.7515 27.0396 5.85519C27.0396 5.95889 27.2325 6.03647 27.4685 6.02789C28.2498 5.99911 30.0394 6.3971 31.0725 6.82941C32.5044 7.4285 33.9016 8.50698 33.9016 9.01305C33.9016 10.6672 35.7343 12.8992 38.2161 14.2672L39.5761 15.0171L39.7066 16.4103C40.0526 20.1013 38.4652 24.3449 35.7637 26.9513C35.0626 27.6276 34.8049 27.7503 33.9016 27.838C33.325 27.8939 31.9955 28.0296 30.9471 28.1396C26.9042 28.564 26.6584 28.5717 26.6584 28.273C26.6584 27.8176 26.098 27.3964 25.4922 27.3964C25.0618 27.3964 24.847 27.5338 24.6003 27.9671C24.395 28.3279 24.1219 28.5381 23.8571 28.5389C23.1383 28.541 18.6066 28.1434 17.5628 27.9865C16.8207 27.8752 16.4183 27.9099 15.9778 28.1232L15.3875 28.4091L14.1535 27.1878C13.4749 26.5163 12.466 25.2806 11.9115 24.4419C9.33885 20.5498 9.02129 17.1447 10.8759 13.3355C11.3734 12.3139 11.606 11.6101 11.5372 11.3341C11.4787 11.1001 11.2896 10.351 11.1169 9.66952C10.7004 8.02549 10.8228 6.6834 11.4318 6.21488C12.1025 5.69889 13.0664 5.57767 14.4592 5.83385C18.0923 6.50213 18.0902 6.50213 19.6178 5.98081C21.0187 5.50275 22.6424 5.2359 25.61 4.99592C27.0512 4.87946 27.2218 4.81541 28.7179 3.82652C30.4929 2.65331 32.0908 1.85693 32.6626 1.86056C32.8723 1.86189 33.236 2.01114 33.4708 2.19222ZM8.61358 4.70543C10.1777 5.86778 10.4697 6.16494 10.3794 6.50194C10.3197 6.724 10.2698 7.09874 10.2685 7.33453C10.2669 7.57031 10.1808 7.7634 10.0771 7.7634C9.74733 7.7634 5.3099 4.62518 5.3099 4.39206C5.3099 4.32668 5.53196 3.98206 5.8032 3.62619C6.12877 3.19941 6.37199 3.03606 6.518 3.14604C6.6398 3.23772 7.58275 3.93936 8.61358 4.70543ZM38.8575 4.03066C38.8575 4.35089 38.9621 4.52301 39.1567 4.52301C39.3554 4.52301 39.4354 4.38406 39.395 4.10901C39.305 3.49886 38.8575 3.43348 38.8575 4.03066ZM40.5055 3.85225C40.3441 4.27293 40.5482 4.62404 40.8048 4.36747C40.9262 4.24606 40.9287 4.06212 40.8118 3.8534C40.6406 3.54766 40.6223 3.54766 40.5055 3.85225ZM38.1332 5.47607C38.3219 5.47607 38.4763 5.60473 38.4763 5.76199C38.4763 6.15941 37.8381 6.11995 37.4571 5.69889C37.1273 5.33445 37.2579 4.94388 37.5962 5.28222C37.7028 5.38896 37.9444 5.47607 38.1332 5.47607ZM43.1746 5.94745C43.1359 6.05515 42.9045 6.11995 42.6605 6.09136C42.4164 6.06296 42.2704 6.09327 42.3357 6.15865C42.4011 6.22422 42.3811 6.47125 42.2911 6.70799C42.1326 7.12505 42.1713 7.14182 43.5518 7.25848C44.3351 7.32481 45.1326 7.46281 45.324 7.56517C45.66 7.74491 46.0048 8.52585 45.7481 8.52585C45.5281 8.52585 45.1063 9.66818 45.2186 9.96039C45.2828 10.1281 45.14 10.3624 44.8631 10.5438C44.6084 10.7108 44.3511 11.0019 44.291 11.1908C44.1696 11.5735 43.493 11.8282 43.3239 11.5549C43.2642 11.4582 42.5864 11.4243 41.8177 11.4796C40.2892 11.5895 40.3557 11.6263 39.1544 10.0023C38.6573 9.33042 38.4763 9.50292 38.4763 10.6483V11.6046L37.916 11.1612C37.2882 10.6643 36.7608 9.72613 36.7608 9.10588C36.7608 8.7279 37.7969 7.57279 38.1358 7.57279C38.2165 7.57279 38.5189 7.81735 38.8081 8.11642C39.0975 8.41529 39.4198 8.6345 39.5246 8.60324C39.6295 8.57198 40.0797 8.45265 40.5253 8.3381C41.3379 8.12938 41.6351 7.7634 40.9923 7.7634C40.8036 7.7634 40.5463 7.66047 40.4205 7.53467C40.2426 7.35683 40.1918 7.39915 40.1918 7.72528C40.1918 8.01997 40.0764 8.14463 39.8039 8.14463C39.4751 8.14463 39.447 8.08649 39.6199 7.7634C39.7924 7.44127 39.7648 7.38218 39.4427 7.38218C39.0231 7.38218 38.6669 6.86277 38.6669 6.2511C38.6669 5.89999 38.7858 5.85615 39.7629 5.84662C40.3656 5.84071 41.1591 5.73054 41.526 5.60187C42.242 5.35103 43.3086 5.57442 43.1746 5.94745ZM50.1994 6.6205C50.5095 6.96303 50.5214 7.10885 50.314 8.03522C50.1868 8.60343 49.9589 9.17107 49.8073 9.29687C49.6558 9.42267 49.5317 9.46175 49.5317 9.3836C49.5317 9.30545 49.3891 9.35939 49.2147 9.5033C48.9677 9.70726 48.8802 9.7124 48.8177 9.52656C48.7736 9.39561 48.621 9.28829 48.4788 9.28829C48.3364 9.28829 48.1585 9.18899 48.0836 9.06757C47.9914 8.91851 48.0724 8.87981 48.3341 8.94824C48.632 9.02601 48.701 8.97283 48.6339 8.71665C48.5581 8.42692 48.989 6.84447 49.2658 6.39691C49.4335 6.12529 49.8393 6.2225 50.1994 6.6205ZM47.8162 6.78881C47.8162 6.88164 47.5802 6.9981 47.292 7.04766C47.0038 7.09722 46.5963 7.19977 46.3866 7.27582C46.0563 7.39572 46.0654 7.36102 46.4554 7.01697C46.9041 6.62088 47.8162 6.46801 47.8162 6.78881ZM12.6477 7.68678C12.2283 8.13948 12.1555 8.3665 12.2266 8.99952C12.3966 10.5139 12.9978 13.2744 13.1387 13.1872C13.2178 13.1384 13.4707 12.7098 13.7006 12.2348C14.395 10.8004 15.816 9.41505 17.4131 8.61525C18.1998 8.22125 18.8433 7.86462 18.8433 7.82249C18.8433 7.78056 18.5536 7.80057 18.1992 7.86691C17.7639 7.94868 17.3512 7.88215 16.9248 7.66162C16.5512 7.46853 15.6544 7.29564 14.7244 7.2377C13.1861 7.14163 13.1448 7.15059 12.6477 7.68678ZM41.8596 9.13295C41.0796 9.34376 40.9613 9.6415 41.4784 10.091C42.3821 10.8763 43.5139 10.5288 43.3948 9.50254C43.3281 8.92651 42.955 8.83674 41.8596 9.13295ZM49.6842 10.6607C49.862 10.8385 49.9129 10.8296 49.9129 10.6199C49.9129 10.1264 50.4647 10.8559 50.5989 11.5266C50.704 12.0523 50.6289 12.2321 50.07 12.791C49.2547 13.6062 48.3522 13.8612 46.2913 13.859C44.3395 13.8567 43.8686 13.66 44.7386 13.2101C45.1038 13.0212 45.3383 12.753 45.3383 12.5237C45.3383 12.0769 45.3975 12.0716 46.3866 12.4279C47.4495 12.8108 49.3411 12.8142 49.3411 12.4334C49.3411 12.1755 49.1148 12.0628 48.7216 12.125C48.6429 12.1374 48.5786 12.0188 48.5786 11.8615C48.5786 11.7043 48.4437 11.5756 48.2788 11.5756C47.8236 11.5756 48.032 10.9552 48.5804 10.6778C49.1766 10.3761 49.3962 10.3727 49.6842 10.6607ZM3.91977 11.6296C4.67555 12.0716 6.15183 12.9297 7.20076 13.5363C8.2497 14.1428 9.15586 14.7165 9.21438 14.8113C9.27309 14.906 9.26547 15.3305 9.19761 15.7548L9.07428 16.526L7.81167 15.8314C6.03689 14.8555 5.24357 14.4241 3.4991 13.4865C1.88233 12.6177 1.4973 12.3648 1.49844 12.1719C1.49977 11.9452 2.25479 10.8132 2.40022 10.8195C2.48047 10.8229 3.16419 11.1874 3.91977 11.6296ZM28.6598 11.6635C28.1278 11.9723 27.879 12.2565 27.8371 12.6034C27.7658 13.1907 28.0841 13.2608 28.3727 12.7212C28.7631 11.9919 29.6313 11.7224 31.307 11.8105C32.1575 11.8551 33.0032 11.9584 33.1868 12.04C33.7653 12.2971 33.5585 11.7958 32.9581 11.4853C32.0439 11.0126 29.6069 11.1136 28.6598 11.6635ZM52.8642 14.2476C52.5809 14.5433 51.8225 14.9851 51.1786 15.2295C50.1171 15.6324 49.7248 15.6715 46.9585 15.6496C45.2811 15.6364 43.6942 15.5346 43.4321 15.4235L42.9556 15.2214L43.4495 15.2092C43.7211 15.2028 44.642 15.2912 45.4957 15.4062C48.365 15.7923 51.742 15.0011 52.815 13.6912C53.1222 13.3163 53.2677 13.242 53.3138 13.436C53.3498 13.5868 53.1474 13.952 52.8642 14.2476ZM15.9811 14.2179C15.3376 14.5619 14.8203 15.4311 15.0953 15.7062C15.1696 15.7805 15.3624 15.653 15.5236 15.4229C16.0112 14.7266 16.8834 14.3982 18.2499 14.3961C18.9432 14.3951 19.7582 14.4916 20.0611 14.6105C20.783 14.894 20.9625 14.6881 20.3947 14.2278C19.7559 13.7099 16.9435 13.7036 15.9811 14.2179ZM36.2263 14.2918C35.8594 14.6591 35.5957 14.7207 34.392 14.7207C33.6187 14.7207 33.0255 14.7851 33.074 14.8637C33.1222 14.9422 33.7184 15.0066 34.3989 15.0066C35.717 15.0066 36.7608 14.6254 36.7608 14.1439C36.7608 13.7774 36.7325 13.7852 36.2263 14.2918ZM42.6697 15.0066C42.9238 15.1709 42.9238 15.1902 42.6697 15.1808C42.5124 15.1751 42.2122 15.0968 42.0026 15.0066L41.6213 14.8429L42.0026 14.8324C42.2122 14.8265 42.5124 14.905 42.6697 15.0066ZM23.9898 15.5785C23.4875 16.0807 23.5089 16.3969 24.0819 16.9404C24.6758 17.5038 24.6804 17.8759 24.1045 18.788C23.2085 20.2076 22.0126 20.4993 20.9976 19.5458C20.3865 18.9717 20.2184 19.2582 20.8157 19.8556C21.2214 20.2612 21.4814 20.3437 22.3544 20.3437C23.2575 20.3437 23.4992 20.2608 24.0784 19.7521C24.449 19.4267 24.7522 19.0121 24.7522 18.8309C24.7522 18.2253 25.0248 18.2186 25.5103 18.8122C26.3334 19.8184 27.9377 19.8445 28.8447 18.8663C29.4762 18.1853 29.5072 17.63 28.8809 18.2184C27.8684 19.1696 26.4304 19.0537 25.5911 17.9533C25.1163 17.3308 25.103 17.2625 25.3937 16.9411C26.3301 15.9063 24.9762 14.5921 23.9898 15.5785ZM42.4911 15.9282C43.3755 16.1425 44.3429 16.3693 44.6408 16.4326C45.0575 16.521 45.1518 16.6224 45.0499 16.8731C44.977 17.0521 44.843 17.6704 44.7523 18.247C44.3044 21.0894 44.2041 21.6349 44.0095 22.2906C43.8938 22.6799 43.7167 23.0497 43.6157 23.112C43.5147 23.1743 43.4321 23.3462 43.4321 23.494C43.4321 23.7774 42.2757 26.2018 41.5251 27.4917C40.6681 28.9649 40.0063 30.1717 39.4085 31.3515C39.0767 32.0069 38.7425 32.5429 38.6663 32.5429C38.5899 32.5429 38.267 31.9607 37.9488 31.2492C37.6307 30.5378 37.0711 29.447 36.7049 28.8254L36.0395 27.695L36.8368 26.7355C38.4623 24.7797 39.2467 23.3409 39.918 21.0845C40.3563 19.612 40.4485 18.9475 40.4399 17.3302C40.4321 15.8867 40.4895 15.3882 40.6561 15.4521C40.7807 15.4999 41.6065 15.7142 42.4911 15.9282ZM36.6197 16.8495C36.1617 17.1689 35.0862 17.2541 34.2352 17.0384C33.9311 16.9613 33.711 16.9835 33.711 17.0912C33.711 17.6786 36.61 17.5296 37.2293 16.9103C37.7003 16.4393 37.2693 16.3962 36.6197 16.8495ZM47.0053 17.2463C50.3658 21.5705 52.3987 27.635 52.3886 33.3053C52.3846 35.5827 52.2803 35.9134 51.6961 35.5042C51.3446 35.2581 51.295 34.9631 51.1912 32.5051C50.9377 26.4953 49.575 22.6543 45.8321 17.3984C45.6055 17.0805 45.822 16.5315 46.1741 16.5315C46.3258 16.5315 46.6998 16.8533 47.0053 17.2463ZM32.7579 18.8234C32.7579 19.186 33.5741 19.4065 34.714 19.352C35.7242 19.3038 35.9097 19.2392 35.9709 18.9142C36.0397 18.5489 36.0271 18.5469 35.6718 18.8665C35.2185 19.2744 34.0093 19.3036 33.2821 18.9243C32.9939 18.7739 32.7579 18.7285 32.7579 18.8234ZM9.12213 19.7938C9.12213 20.2583 8.9319 20.9381 8.65532 21.4617C5.72124 27.0149 5.03904 34.2103 6.87272 40.2626C7.47582 42.2528 8.6517 44.9223 9.42977 46.0673C9.75419 46.5448 9.88457 47.0009 9.88457 47.6591C9.88457 48.7294 9.79784 48.6819 8.73175 47.0293C7.32009 44.8405 6.02774 41.7595 5.41188 39.114C4.43614 34.9215 4.62199 29.4538 5.87888 25.3907C6.65447 22.8831 8.53333 19.0095 8.97402 19.0095C9.0556 19.0095 9.12213 19.3625 9.12213 19.7938ZM15.4123 20.8613C14.7261 21.2339 14.3533 21.3113 13.5485 21.2482C12.8796 21.1958 12.5651 21.2385 12.6101 21.3759C12.7882 21.9197 15.6498 21.4527 16.1997 20.7903C16.5663 20.3487 16.3146 20.3714 15.4123 20.8613ZM16.7466 22.5665C16.239 22.9219 15.8856 23.0194 15.269 22.9738C14.4266 22.9118 14.2162 23.2445 15.0231 23.3623C15.5537 23.44 17.0079 22.9098 17.3306 22.5211C17.7198 22.0522 17.4513 22.073 16.7466 22.5665ZM10.647 26.0325C10.647 26.1212 10.4848 26.3404 10.2864 26.5199C10.0721 26.7138 9.9652 26.9965 10.0228 27.2166C10.1413 27.6701 9.93394 27.6909 9.47075 27.2715C9.0171 26.8609 9.02873 26.6339 9.50335 26.6339C9.71302 26.6339 9.88457 26.5481 9.88457 26.4433C9.88457 26.3385 9.62725 26.2527 9.31274 26.2527C8.99823 26.2527 8.7409 26.1669 8.7409 26.0621C8.7409 25.9572 9.16978 25.8715 9.69396 25.8715C10.2181 25.8715 10.647 25.9439 10.647 26.0325ZM26.0665 28.0393C26.4066 28.4491 26.1113 28.9212 25.5147 28.9212C24.9596 28.9212 24.6855 28.5543 24.8739 28.0635C25.0113 27.7055 25.7766 27.6901 26.0665 28.0393ZM9.43987 28.8576C9.29139 29.0061 8.74738 28.6839 8.85432 28.5109C8.92065 28.4035 9.076 28.4226 9.23897 28.5579C9.38955 28.6828 9.4799 28.8176 9.43987 28.8576ZM10.1501 29.8124C9.60132 30.2515 8.7409 30.4149 8.7409 30.0798C8.7409 29.983 9.03425 29.807 9.39279 29.6887C9.75133 29.5705 10.1556 29.3398 10.2911 29.1765C10.4798 28.9493 10.557 28.9371 10.6198 29.1252C10.6647 29.2603 10.4535 29.5697 10.1501 29.8124ZM43.6929 30.4419C43.9165 30.5969 44.844 31.2831 45.754 31.9668C46.6641 32.6506 48.2329 33.8104 49.2401 34.5443C50.2474 35.2781 51.7108 36.3503 52.4919 36.9269C53.273 37.5035 54.1435 38.1415 54.4262 38.3447C54.7259 38.5601 54.8446 38.7457 54.7112 38.7903C54.4889 38.8643 53.8212 38.4482 51.2472 36.6303C50.5658 36.1492 49.708 35.5482 49.3411 35.2947C48.9742 35.0412 47.6875 34.1444 46.4819 33.3015C45.2763 32.4588 43.7133 31.3759 43.0084 30.8952C41.5049 29.8697 41.2527 29.6025 41.4075 29.1992C41.5028 28.9508 41.6713 29.0068 42.4044 29.5303C42.8895 29.8768 43.4693 30.287 43.6929 30.4419ZM25.7053 29.9809C25.7053 30.1442 25.6195 30.225 25.5147 30.1602C25.4099 30.0954 25.3241 29.9618 25.3241 29.8631C25.3241 29.7643 25.4099 29.6837 25.5147 29.6837C25.6195 29.6837 25.7053 29.8175 25.7053 29.9809ZM37.0894 30.9703C38.0964 33.0956 39.6199 37.3047 39.6199 37.9614C39.6199 38.099 39.7926 38.752 40.0036 39.4125C40.2146 40.0731 40.463 41.0493 40.5554 41.5818C40.905 43.593 42.2197 48.4503 42.9587 50.4603C43.7865 52.7122 43.8151 52.5679 42.3483 53.5518C39.672 55.3474 36.0563 56.9211 32.7166 57.7441C30.0265 58.4069 26.3576 58.3587 23.5178 57.6231C22.3671 57.325 21.2949 57.0152 21.1352 56.9348C20.9755 56.8544 20.278 56.5612 19.5855 56.2833L18.3266 55.778L18.2048 54.2152C17.9562 51.0219 18.0847 46.8183 18.5549 42.7608C18.678 41.6975 18.382 41.2486 18.1142 42.0927C17.5508 43.8682 17.2974 50.9612 17.6893 53.9866C17.7707 54.6156 17.7989 55.1985 17.7519 55.282C17.6282 55.5012 15.7394 54.3926 14.062 53.1161C12.158 51.6675 10.8849 50.2386 10.7214 49.3674C10.5328 48.3624 10.7814 44.9982 11.1336 43.7889C11.3016 43.2123 11.5147 42.3805 11.6071 41.9404C11.7691 41.1705 12.6477 38.4604 13.5106 36.0692C14.001 34.7105 15.5591 31.3992 15.7079 31.3992C15.7655 31.3992 16.0749 31.5349 16.3957 31.7007C16.7165 31.8668 18.0044 32.1151 19.2575 32.2529C20.5108 32.3909 21.5845 32.552 21.6438 32.6113C21.7028 32.6704 21.5688 33.1071 21.3456 33.5819C20.8668 34.6005 20.8354 35.078 21.2259 35.402C21.4591 35.5955 21.5119 35.585 21.5119 35.346C21.5119 35.1845 21.4047 35.0166 21.2736 34.9726C21.0856 34.9095 21.0839 34.7953 21.265 34.4326C21.3914 34.1795 21.6295 33.6351 21.7942 33.2226C21.9588 32.8103 22.37 32.2228 22.7081 31.9175C23.5493 31.1571 24.5616 30.77 24.5616 31.2086C24.5616 31.3134 24.409 31.3992 24.2223 31.3992C23.8613 31.3992 22.869 32.3542 22.4893 33.067C22.1392 33.7247 22.5082 33.5716 22.9615 32.8713C23.182 32.5305 23.6966 32.0814 24.1051 31.8732C24.5134 31.6653 24.9762 31.3519 25.1335 31.1768C25.5408 30.7233 27.2308 31.0184 28.1226 31.6986C28.8727 32.2707 29.5158 33.222 29.5168 33.7609C29.5171 33.9589 29.6666 34.23 29.8486 34.363C30.153 34.5858 30.1551 34.6333 29.8742 34.956C29.7062 35.1489 29.5143 35.536 29.448 35.8162C29.2707 36.5632 28.4042 37.5031 27.5239 37.9028C26.6639 38.2936 25.0433 38.3664 23.9521 38.0633C23.2321 37.8634 21.8931 36.7338 21.8931 36.3267C21.8931 36.2026 21.8433 36.1508 21.7823 36.2117C21.4579 36.5362 22.4609 37.6276 23.7039 38.3028C25.7299 39.4033 28.7776 38.2334 29.5366 36.0638C29.6822 35.6473 29.909 35.2381 30.0408 35.1542C30.36 34.9509 30.3455 34.3154 30.0173 34.1249C29.8728 34.0411 29.6957 33.6997 29.6239 33.3665C29.4754 32.6782 29.3029 32.7325 32.8355 32.354C34.9818 32.1239 35.9375 31.5608 36.1201 30.4187C36.1847 30.0144 36.2922 29.6837 36.3588 29.6837C36.4253 29.6837 36.7543 30.2626 37.0894 30.9703ZM10.5138 31.1388C10.5801 31.2053 10.4705 31.468 10.2702 31.7229C10.0575 31.9933 9.957 32.3197 10.0287 32.5074C10.1423 32.8044 10.1169 32.8059 9.69491 32.5265C9.09067 32.1266 8.99442 31.7804 9.48753 31.7804C9.70597 31.7804 9.88457 31.6946 9.88457 31.5898C9.88457 31.485 9.57921 31.3992 9.20619 31.3992C8.80247 31.3992 8.57545 31.322 8.6456 31.2086C8.77407 31.0008 10.318 30.9431 10.5138 31.1388ZM28.1968 32.4476C28.1968 32.5524 28.3193 32.8526 28.4692 33.1147C28.619 33.3768 28.7415 33.5054 28.7415 33.4006C28.7415 33.2958 28.619 32.9956 28.4692 32.7335C28.3193 32.4714 28.1968 32.3427 28.1968 32.4476ZM42.0979 33.9728C43.4886 34.7797 43.7444 34.9287 46.2913 36.4188C47.2873 37.0013 48.7883 37.8704 49.627 38.3504C50.4657 38.8302 51.495 39.4344 51.9143 39.6935C52.3337 39.9523 53.0414 40.3535 53.4869 40.5849C53.9323 40.8163 54.297 41.1141 54.297 41.2464C54.297 41.5468 53.5523 41.1577 44.4805 36.1199C41.8596 34.6644 39.6396 33.3985 39.5469 33.307C39.4545 33.2153 39.4329 32.9988 39.4993 32.8261C39.6091 32.54 39.6754 32.545 40.2394 32.8829C40.58 33.0871 41.4164 33.5775 42.0979 33.9728ZM10.647 33.4959C10.647 33.6008 10.5184 33.6865 10.3611 33.6865C10.2038 33.6865 10.0752 33.6008 10.0752 33.4959C10.0752 33.3911 10.2038 33.3053 10.3611 33.3053C10.5184 33.3053 10.647 33.3911 10.647 33.4959ZM9.9469 34.1019C10.4678 34.6238 10.4943 34.6928 10.1381 34.6001C9.81462 34.5161 9.69892 34.5935 9.60818 34.955C9.54433 35.2095 9.409 35.3662 9.30721 35.3033C9.1126 35.183 9.04245 33.4959 9.23211 33.4959C9.29253 33.4959 9.61428 33.7687 9.9469 34.1019ZM22.8105 34.9604C22.9479 35.0155 23.1124 35.0086 23.1757 34.9453C23.239 34.882 23.1265 34.8371 22.9256 34.8453C22.7036 34.8544 22.6584 34.8996 22.8105 34.9604ZM28.0828 35.0124C28.1447 35.1127 28.3214 35.1464 28.4753 35.0873C28.8693 34.9362 28.8229 34.8302 28.3626 34.8302C28.1468 34.8302 28.0208 34.9122 28.0828 35.0124ZM24.5214 35.1621C25.1807 35.1994 26.21 35.1992 26.8088 35.1615C27.4075 35.1237 26.868 35.0932 25.61 35.0936C24.352 35.094 23.8621 35.1249 24.5214 35.1621ZM10.647 36.4397C10.647 37.1351 9.85522 38.2944 9.57273 38.0126C9.48829 37.9282 9.51097 37.7995 9.62324 37.7267C9.73551 37.6537 9.92917 37.4012 10.0533 37.1652C10.2319 36.8261 10.2279 36.7317 10.0342 36.7144C9.50659 36.6671 9.02034 36.7857 8.88672 36.9942C8.80361 37.124 8.74548 37.0386 8.74376 36.784C8.74224 36.5396 8.85718 36.3551 9.011 36.3551C9.15949 36.3551 9.31712 36.248 9.36115 36.1168C9.42501 35.9274 9.50163 35.9283 9.73608 36.1218C9.97816 36.3215 10.0506 36.3132 10.1423 36.0741C10.3436 35.5496 10.647 35.7695 10.647 36.4397ZM23.3741 37.3081C23.599 37.5178 23.843 37.6894 23.916 37.6894C23.989 37.6894 23.8935 37.5178 23.7039 37.3081C23.5142 37.0985 23.2702 36.9269 23.1618 36.9269C23.0535 36.9269 23.149 37.0985 23.3741 37.3081ZM51.5903 37.7275C51.8953 38.0325 51.8825 38.6424 51.5712 38.6424C51.2177 38.6424 50.866 38.2433 50.866 37.8419C50.866 37.45 51.2518 37.389 51.5903 37.7275ZM10.0819 39.3923C9.9734 39.5951 9.88324 39.9597 9.88171 40.2024C9.87923 40.5554 9.84244 40.5865 9.69739 40.3579C9.5977 40.2007 9.40595 40.0604 9.27137 40.0463C9.1368 40.0322 8.94981 40.0108 8.85565 39.9986C8.67247 39.9752 9.87866 39.0673 10.1295 39.04C10.2119 39.0311 10.1905 39.1895 10.0819 39.3923ZM51.0011 40.5693C51.4571 41.0253 49.7852 44.8842 47.9083 47.7081C46.7463 49.4562 44.4355 52.0388 44.1767 51.8788C43.6853 51.575 44.0875 50.7512 45.6242 48.9133C46.5153 47.8478 47.2444 46.8873 47.2444 46.7792C47.2444 46.6712 47.3629 46.4474 47.5078 46.2819C48.0314 45.6836 49.5166 42.5393 49.9236 41.168C50.1668 40.3484 50.561 40.1292 51.0011 40.5693ZM14.6022 59.7358C14.7333 59.7888 14.9478 59.7888 15.0787 59.7358C15.2099 59.683 15.1026 59.6398 14.8405 59.6398C14.5784 59.6398 14.4712 59.683 14.6022 59.7358ZM53.2963 59.7475C53.6371 59.7898 54.1944 59.7898 54.5352 59.7475C54.8761 59.7053 54.5972 59.6707 53.9158 59.6707C53.2343 59.6707 52.9555 59.7053 53.2963 59.7475Z" fill="black"/>
</svg>
