<svg width="1920" height="469" viewBox="0 0 1920 469" fill="none" xmlns="http://www.w3.org/2000/svg">
<g filter="url(#filter0_i_9_87)">
<path fill-rule="evenodd" clip-rule="evenodd" d="M0 0.00100439L78.7116 7.44443C155.315 22.3333 256 178.667 384 245.667C512 312.667 640 357.334 768 357.334C896 357.334 1024 312.667 1152 268C1280 223.334 1371.13 150.643 1485.68 98.6387C1608.67 42.8055 1719.66 0 1783.66 0H1920V469H1856C1792 469 1664 469 1536 469C1408 469 1280 469 1152 469C1024 469 896 469 768 469C640 469 512 469 384 469C256 469 128 469 64 469H0V0.00100439Z" fill="white" fill-opacity="0.4"/>
</g>
<defs>
<filter id="filter0_i_9_87" x="0" y="0" width="1920" height="481" filterUnits="userSpaceOnUse" color-interpolation-filters="sRGB">
<feFlood flood-opacity="0" result="BackgroundImageFix"/>
<feBlend mode="normal" in="SourceGraphic" in2="BackgroundImageFix" result="shape"/>
<feColorMatrix in="SourceAlpha" type="matrix" values="0 0 0 0 0 0 0 0 0 0 0 0 0 0 0 0 0 0 127 0" result="hardAlpha"/>
<feOffset dy="12"/>
<feGaussianBlur stdDeviation="15.5"/>
<feComposite in2="hardAlpha" operator="arithmetic" k2="-1" k3="1"/>
<feColorMatrix type="matrix" values="0 0 0 0 0.65 0 0 0 0 0.65 0 0 0 0 0.65 0 0 0 0.1 0"/>
<feBlend mode="normal" in2="shape" result="effect1_innerShadow_9_87"/>
</filter>
</defs>
</svg>
